<svg width="30" height="30" viewBox="0 0 30 30" fill="none" xmlns="http://www.w3.org/2000/svg">
<mask id="mask0_9_86" style="mask-type:alpha" maskUnits="userSpaceOnUse" x="0" y="0" width="30" height="30">
<rect width="30" height="30" fill="#D9D9D9"/>
</mask>
<g mask="url(#mask0_9_86)">
<path d="M7.5 27.5C6.45833 27.5 5.57292 27.1354 4.84375 26.4062C4.11458 25.6771 3.75 24.7917 3.75 23.75V20H7.5V2.5H26.25V13.875C25.8333 13.7708 25.4115 13.7396 24.9844 13.7813C24.5573 13.8229 24.1458 13.9271 23.75 14.0938V5H10V20H17.5L15 22.5H6.25V23.75C6.25 24.1042 6.36979 24.401 6.60938 24.6406C6.84896 24.8802 7.14583 25 7.5 25H15V27.5H7.5ZM17.5 27.5V23.5313L22.875 18.1563L24.2188 19.5L19.375 24.3125V25.625H20.6875L25.5313 20.8125L26.8438 22.125L21.4688 27.5H17.5ZM26.8438 22.125L22.875 18.1563L24.4375 16.5938C24.6667 16.3646 24.9583 16.25 25.3125 16.25C25.6667 16.25 25.9583 16.3646 26.1875 16.5938L28.4063 18.8125C28.6354 19.0417 28.75 19.3333 28.75 19.6875C28.75 20.0417 28.6354 20.3333 28.4063 20.5625L26.8438 22.125ZM11.25 11.25V8.75H22.5V11.25H11.25ZM11.25 15V12.5H22.5V15H11.25Z" fill="#A18CD1"/>
</g>
</svg>
