<svg width="25" height="25" viewBox="0 0 25 25" fill="none" xmlns="http://www.w3.org/2000/svg">
<mask id="mask0_6_185" style="mask-type:alpha" maskUnits="userSpaceOnUse" x="0" y="0" width="25" height="25">
<rect x="0.473" y="0.292496" width="24" height="24" fill="#D9D9D9"/>
</mask>
<g mask="url(#mask0_6_185)">
<path d="M11.423 18.3175L17.348 12.3925L15.648 10.6925L11.423 14.9175L9.298 12.7925L7.598 14.4925L11.423 18.3175ZM6.773 23.1425C5.88967 23.1425 5.14383 22.8383 4.5355 22.23C3.92717 21.6217 3.623 20.8758 3.623 19.9925V4.59249C3.623 3.70916 3.92717 2.96332 4.5355 2.35499C5.14383 1.74666 5.88967 1.44249 6.773 1.44249H14.823L21.323 7.94249V19.9925C21.323 20.8758 21.0188 21.6217 20.4105 22.23C19.8022 22.8383 19.0563 23.1425 18.173 23.1425H6.773ZM13.173 9.59249H18.173L13.173 4.59249V9.59249Z" fill="#1C1B1F"/>
</g>
</svg>
