<svg width="30" height="34" viewBox="0 0 30 34" fill="none" xmlns="http://www.w3.org/2000/svg">
<path id="align_flex_center" d="M15 33.3333C14.0795 33.3333 13.3333 32.5871 13.3333 31.6667V19.1667H2.5C1.11929 19.1667 0 18.0474 0 16.6667V16.6667C0 15.286 1.11929 14.1667 2.5 14.1667H13.3333V1.66667C13.3333 0.746192 14.0795 -1.90735e-06 15 -1.90735e-06V-1.90735e-06C15.9205 -1.90735e-06 16.6667 0.74619 16.6667 1.66667V14.1667H27.5C28.8807 14.1667 30 15.286 30 16.6667V16.6667C30 18.0474 28.8807 19.1667 27.5 19.1667H16.6667V31.6667C16.6667 32.5871 15.9205 33.3333 15 33.3333V33.3333Z" fill="url(#paint0_radial_5_59)"/>
<defs>
<radialGradient id="paint0_radial_5_59" cx="0" cy="0" r="1" gradientUnits="userSpaceOnUse" gradientTransform="translate(15 16.6667) rotate(90) scale(16.6667 15)">
<stop stop-color="#FBC2EB"/>
<stop offset="1" stop-color="#A18CD1"/>
</radialGradient>
</defs>
</svg>
