<svg width="30" height="30" viewBox="0 0 30 30" fill="none" xmlns="http://www.w3.org/2000/svg">
<g id="task_alt">
<mask id="mask0_5_70" style="mask-type:alpha" maskUnits="userSpaceOnUse" x="0" y="0" width="30" height="30">
<rect id="Bounding box" width="30" height="30" fill="#D9D9D9"/>
</mask>
<g mask="url(#mask0_5_70)">
<path id="task_alt_2" d="M15 27.5C13.2708 27.5 11.6458 27.1719 10.125 26.5156C8.60417 25.8594 7.28125 24.9688 6.15625 23.8438C5.03125 22.7188 4.14063 21.3958 3.48438 19.875C2.82812 18.3542 2.5 16.7292 2.5 15C2.5 13.2708 2.82812 11.6458 3.48438 10.125C4.14063 8.60417 5.03125 7.28125 6.15625 6.15625C7.28125 5.03125 8.60417 4.14063 10.125 3.48438C11.6458 2.82812 13.2708 2.5 15 2.5C16.3542 2.5 17.6354 2.69792 18.8437 3.09375C20.0521 3.48958 21.1667 4.04167 22.1875 4.75L20.375 6.59375C19.5833 6.09375 18.7396 5.70313 17.8438 5.42188C16.9479 5.14063 16 5 15 5C12.2292 5 9.86979 5.97396 7.92188 7.92188C5.97396 9.86979 5 12.2292 5 15C5 17.7708 5.97396 20.1302 7.92188 22.0781C9.86979 24.026 12.2292 25 15 25C17.7708 25 20.1302 24.026 22.0781 22.0781C24.026 20.1302 25 17.7708 25 15C25 14.625 24.9792 14.25 24.9375 13.875C24.8958 13.5 24.8333 13.1354 24.75 12.7813L26.7813 10.75C27.0104 11.4167 27.1875 12.1042 27.3125 12.8125C27.4375 13.5208 27.5 14.25 27.5 15C27.5 16.7292 27.1719 18.3542 26.5156 19.875C25.8594 21.3958 24.9688 22.7188 23.8438 23.8438C22.7188 24.9688 21.3958 25.8594 19.875 26.5156C18.3542 27.1719 16.7292 27.5 15 27.5ZM13.25 20.75L7.9375 15.4375L9.6875 13.6875L13.25 17.25L25.75 4.71875L27.5 6.46875L13.25 20.75Z" fill="#A18CD1"/>
</g>
</g>
</svg>
